<?xml version="1.0" encoding="iso-8859-1"?>
<!-- Generator: Adobe Illustrator 19.0.0, SVG Export Plug-In . SVG Version: 6.00 Build 0)  -->
<svg version="1.1" id="Capa_1" xmlns="http://www.w3.org/2000/svg" xmlns:xlink="http://www.w3.org/1999/xlink" x="0px" y="0px"
	 viewBox="0 0 512 512" style="enable-background:new 0 0 512 512;" xml:space="preserve">
<polygon style="fill:#353535;" points="434.733,489.5 389.733,489.5 389.733,369.5 434.733,402.5 "/>
<polygon style="fill:#4F4F4F;" points="404.733,489.5 344.733,489.5 344.733,402.5 404.733,369.5 "/>
<path style="fill:#A45E43;" d="M404.733,7.5h-30l29.999,395h30.001v-365C434.733,21,421.233,7.5,404.733,7.5z"/>
<path style="fill:#C27749;" d="M374.733,7.5c-16.5,0-30,13.5-30,30v365h59.999l0.001-365C404.733,21,391.233,7.5,374.733,7.5z"/>
<path style="fill:#4F4F4F;" d="M449.732,474.5h-30l15,30h30v-15C464.732,481.25,457.982,474.5,449.732,474.5z"/>
<path style="fill:#696969;" d="M434.732,489.5v15h-120v-15c0-8.25,6.75-15,15-15h90C427.982,474.5,434.732,481.25,434.732,489.5z"/>
<path style="fill:#85453D;" d="M359.733,72.5h-30l0.002,30h29.995c8.287,0,15.002-6.716,15.002-15S368.017,72.5,359.733,72.5z"/>
<path style="fill:#A45E43;" d="M344.733,87.5c0-8.284-6.716-15-15-15h-75v30h75.002C338.018,102.499,344.733,95.783,344.733,87.5z"
	/>
<path style="fill:#85453D;" d="M389.733,132.5h-30l0.002,30h29.995c8.287,0,15.002-6.716,15.002-15S398.017,132.5,389.733,132.5z"/>
<path style="fill:#A45E43;" d="M374.733,147.5c0-8.284-6.716-15-15-15h-75v30h75.002C368.018,162.499,374.733,155.783,374.733,147.5
	z"/>
<path style="fill:#85453D;" d="M359.733,237.5h-30l0.002,30h29.995c8.287,0,15.002-6.716,15.002-15S368.017,237.5,359.733,237.5z"/>
<path style="fill:#A45E43;" d="M344.733,252.5c0-8.284-6.716-15-15-15h-75v30h75.002C338.018,267.499,344.733,260.783,344.733,252.5
	z"/>
<path style="fill:#85453D;" d="M359.733,342.5h-30l0.002,30h29.995c8.287,0,15.002-6.716,15.002-15S368.017,342.5,359.733,342.5z"/>
<path style="fill:#A45E43;" d="M329.733,342.5h-60c-8.284,0-15,6.716-15,15v147h30v-132h45.002c8.283-0.001,14.998-6.716,14.998-15
	C344.733,349.216,338.017,342.5,329.733,342.5z"/>
<path style="fill:#353535;" d="M77.267,262.498l30,75c21.217,0,30,0,30,0v-45L77.267,262.498z"/>
<path style="fill:#4F4F4F;" d="M47.267,292.498c0,24.853,20.147,45,45,45h15v-75L47.267,292.498z"/>
<path style="fill:#E18F4E;" d="M117.267,172.735h-30l20,120h30v-100C137.267,181.689,128.313,172.735,117.267,172.735z"/>
<path style="fill:#FFA754;" d="M87.267,172.735l-20-0.237c-11.046,0-20,8.954-20,20v100l60,0.237v-100
	C107.267,181.689,98.313,172.735,87.267,172.735z"/>
<path style="fill:#E18F4E;" d="M106.36,82.045l-14.092,60.453c24.853,0,45-20.147,45-45L106.36,82.045z"/>
<path style="fill:#FFA754;" d="M107.267,97.498c0-5.429-0.321-10.634-0.908-15.453L65.265,61.499
	c-10.928,8.21-17.997,21.278-17.997,35.998c0,24.853,20.147,45,45,45C100.552,142.498,107.267,122.351,107.267,97.498z"/>
<path style="fill:#40211D;" d="M92.267,52.498l14.899,39.832c9.413,3.341,19.543,5.168,30.101,5.168
	C137.267,72.645,117.12,52.498,92.267,52.498z"/>
<path style="fill:#60312C;" d="M92.267,52.498c-10.132,0-19.481,3.35-27.003,9.002c10.532,14.02,25.066,24.856,41.901,30.831
	C106.311,69.913,99.969,52.498,92.267,52.498z"/>
<path d="M92.268,149.998c28.948,0,52.5-23.551,52.5-52.5s-23.552-52.5-52.5-52.5s-52.5,23.551-52.5,52.5
	S63.319,149.998,92.268,149.998z M128.918,89.578c-20.154-2-38.58-11.212-52.297-26.147c4.766-2.198,10.063-3.433,15.646-3.433
	C110.228,59.998,125.272,72.692,128.918,89.578z M64.467,72.359c16.692,18.803,39.576,30.244,64.607,32.299
	c-3.352,17.264-18.577,30.34-36.806,30.34c-20.678,0-37.5-16.822-37.5-37.5C54.768,87.835,58.443,79.015,64.467,72.359z"/>
<path d="M212.268,214.998h-23.055c-4.143,0-7.5,3.358-7.5,7.5s3.357,7.5,7.5,7.5h23.055c12.406,0,22.5-10.093,22.5-22.5
	s-10.094-22.5-22.5-22.5H174.77l0.015-67.499c0.001-4.142-3.356-7.5-7.498-7.501c-4.143,0-7.501,3.357-7.502,7.499l-0.015,67.501
	h-16.05c-3.274-11.528-13.889-20-26.452-20h-50c-15.163,0-27.5,12.336-27.5,27.5v100c0,26.402,19.593,48.304,45,51.956v150.044
	c0,3.228,2.065,6.094,5.128,7.115l30,10c0.787,0.262,1.587,0.387,2.373,0.387c3.141,0,6.066-1.988,7.114-5.13
	c1.31-3.93-0.814-8.177-4.743-9.487l-24.872-8.291V344.998h37.559h46.676v76.734c0,3.228,2.065,6.094,5.128,7.115l30,10
	c0.787,0.262,1.587,0.387,2.373,0.387c3.14,0,6.066-1.988,7.114-5.13c1.31-3.93-0.814-8.177-4.743-9.487l-24.872-8.291v-78.829
	c0-1.989-0.79-3.897-2.196-5.303c-1.407-1.407-3.314-2.197-5.304-2.197h-46.734V229.243c14.672-2.99,26.256-14.574,29.246-29.245
	h38.254c4.136,0,7.5,3.364,7.5,7.5S216.403,214.998,212.268,214.998z M67.268,179.998h50c6.893,0,12.5,5.607,12.5,12.5v22.5h-52.5
	c-4.143,0-7.5,3.358-7.5,7.5s3.357,7.5,7.5,7.5h52.5v55h-75v-92.5C54.768,185.605,60.375,179.998,67.268,179.998z M92.268,329.998
	c-18.11,0-33.261-12.904-36.745-30h74.245v30H92.268z M144.768,213.708v-13.71h13.71
	C156.214,206.38,151.149,211.444,144.768,213.708z"/>
<path d="M449.732,467h-7.5V37.5c0-20.678-16.822-37.5-37.5-37.5h-30c-20.678,0-37.5,16.822-37.5,37.5V65h-82.5
	c-4.143,0-7.5,3.358-7.5,7.5v30c0,4.142,3.357,7.5,7.5,7.5h82.5v15h-52.5c-4.143,0-7.5,3.358-7.5,7.5v30c0,4.142,3.357,7.5,7.5,7.5
	h52.5v60h-82.5c-4.143,0-7.5,3.358-7.5,7.5v30c0,4.142,3.357,7.5,7.5,7.5H359.73c12.407,0,22.502-10.093,22.502-22.5
	s-10.094-22.5-22.5-22.5h-7.5v-60h37.498c12.407,0,22.502-10.093,22.502-22.5s-10.094-22.5-22.5-22.5h-37.5v-15h7.498
	c12.407,0,22.502-10.093,22.502-22.5S372.139,65,359.732,65h-7.5V37.5c0-12.407,10.094-22.5,22.5-22.5h30
	c12.406,0,22.5,10.093,22.5,22.5V395h-75v-15h7.498c12.407,0,22.502-10.093,22.502-22.5s-10.094-22.5-22.5-22.5h-7.5v-37.5
	c0-4.142-3.357-7.5-7.5-7.5s-7.5,3.358-7.5,7.5V335h-67.5c-12.406,0-22.5,10.093-22.5,22.5v147c0,4.142,3.357,7.5,7.5,7.5h30
	c4.143,0,7.5-3.358,7.5-7.5V380h45v87h-7.5c-12.406,0-22.5,10.093-22.5,22.5v15c0,4.142,3.357,7.5,7.5,7.5h150
	c4.143,0,7.5-3.358,7.5-7.5v-15C472.232,477.093,462.139,467,449.732,467z M367.232,252.5c0,4.136-3.365,7.5-7.502,7.5h-97.498v-15
	h97.5C363.868,245,367.232,248.364,367.232,252.5z M397.232,147.5c0,4.136-3.365,7.5-7.502,7.5h-97.498v-15h97.5
	C393.868,140,397.232,143.364,397.232,147.5z M367.232,87.5c0,4.136-3.365,7.5-7.502,7.5h-97.498V80h97.5
	C363.868,80,367.232,83.364,367.232,87.5z M284.732,365c-4.143,0-7.5,3.358-7.5,7.5V497h-15V357.5c0-4.136,3.364-7.5,7.5-7.5h74.99
	c0.02,0,15.01,0,15.01,0c4.136,0,7.5,3.364,7.5,7.5s-3.365,7.5-7.502,7.5H284.732z M352.232,410h75v57h-75V410z M457.232,497h-135
	v-7.5c0-4.136,3.364-7.5,7.5-7.5h120c4.136,0,7.5,3.364,7.5,7.5V497z"/>
<g>
</g>
<g>
</g>
<g>
</g>
<g>
</g>
<g>
</g>
<g>
</g>
<g>
</g>
<g>
</g>
<g>
</g>
<g>
</g>
<g>
</g>
<g>
</g>
<g>
</g>
<g>
</g>
<g>
</g>
</svg>
